<?xml version="1.0" encoding="UTF-8"?>
<svg xmlns="http://www.w3.org/2000/svg" viewBox="0 0 1200 400" width="1200" height="400" role="img" aria-label="hery@madagascar:~$ whoami — Hery RAKOTONARIVO, software engineer, backend and databases, open for freelance">
  <rect width="1200" height="400" fill="#08090B"/>

  <g stroke="#11161C" stroke-width="1">
    <line x1="30" y1="0" x2="30" y2="400"/>
    <line x1="60" y1="0" x2="60" y2="400"/>
    <line x1="90" y1="0" x2="90" y2="400"/>
    <line x1="120" y1="0" x2="120" y2="400"/>
    <line x1="150" y1="0" x2="150" y2="400"/>
    <line x1="180" y1="0" x2="180" y2="400"/>
    <line x1="210" y1="0" x2="210" y2="400"/>
    <line x1="240" y1="0" x2="240" y2="400"/>
    <line x1="270" y1="0" x2="270" y2="400"/>
    <line x1="300" y1="0" x2="300" y2="400"/>
    <line x1="330" y1="0" x2="330" y2="400"/>
    <line x1="360" y1="0" x2="360" y2="400"/>
    <line x1="390" y1="0" x2="390" y2="400"/>
    <line x1="420" y1="0" x2="420" y2="400"/>
    <line x1="450" y1="0" x2="450" y2="400"/>
    <line x1="480" y1="0" x2="480" y2="400"/>
    <line x1="510" y1="0" x2="510" y2="400"/>
    <line x1="540" y1="0" x2="540" y2="400"/>
    <line x1="570" y1="0" x2="570" y2="400"/>
    <line x1="600" y1="0" x2="600" y2="400"/>
    <line x1="630" y1="0" x2="630" y2="400"/>
    <line x1="660" y1="0" x2="660" y2="400"/>
    <line x1="690" y1="0" x2="690" y2="400"/>
    <line x1="720" y1="0" x2="720" y2="400"/>
    <line x1="750" y1="0" x2="750" y2="400"/>
    <line x1="780" y1="0" x2="780" y2="400"/>
    <line x1="810" y1="0" x2="810" y2="400"/>
    <line x1="840" y1="0" x2="840" y2="400"/>
    <line x1="870" y1="0" x2="870" y2="400"/>
    <line x1="900" y1="0" x2="900" y2="400"/>
    <line x1="930" y1="0" x2="930" y2="400"/>
    <line x1="960" y1="0" x2="960" y2="400"/>
    <line x1="990" y1="0" x2="990" y2="400"/>
    <line x1="1020" y1="0" x2="1020" y2="400"/>
    <line x1="1050" y1="0" x2="1050" y2="400"/>
    <line x1="1080" y1="0" x2="1080" y2="400"/>
    <line x1="1110" y1="0" x2="1110" y2="400"/>
    <line x1="1140" y1="0" x2="1140" y2="400"/>
    <line x1="1170" y1="0" x2="1170" y2="400"/>
    <line x1="0" y1="30" x2="1200" y2="30"/>
    <line x1="0" y1="60" x2="1200" y2="60"/>
    <line x1="0" y1="90" x2="1200" y2="90"/>
    <line x1="0" y1="120" x2="1200" y2="120"/>
    <line x1="0" y1="150" x2="1200" y2="150"/>
    <line x1="0" y1="180" x2="1200" y2="180"/>
    <line x1="0" y1="210" x2="1200" y2="210"/>
    <line x1="0" y1="240" x2="1200" y2="240"/>
    <line x1="0" y1="270" x2="1200" y2="270"/>
    <line x1="0" y1="300" x2="1200" y2="300"/>
    <line x1="0" y1="330" x2="1200" y2="330"/>
    <line x1="0" y1="360" x2="1200" y2="360"/>
    <line x1="0" y1="390" x2="1200" y2="390"/>
  </g>

  <text x="56" y="56" font-family="ui-monospace, SFMono-Regular, Menlo, Consolas, DejaVu Sans Mono, Liberation Mono, monospace" font-size="17" fill="#E8A33D">hery@madagascar:~$ whoami</text>

  <g fill="#F0F3F6">
    <rect x="56" y="86" width="20" height="20"/>
    <rect x="136" y="86" width="20" height="20"/>
    <rect x="56" y="106" width="20" height="20"/>
    <rect x="136" y="106" width="20" height="20"/>
    <rect x="56" y="126" width="20" height="20"/>
    <rect x="136" y="126" width="20" height="20"/>
    <rect x="56" y="146" width="100" height="20"/>
    <rect x="56" y="166" width="20" height="20"/>
    <rect x="136" y="166" width="20" height="20"/>
    <rect x="56" y="186" width="20" height="20"/>
    <rect x="136" y="186" width="20" height="20"/>
    <rect x="56" y="206" width="20" height="20"/>
    <rect x="136" y="206" width="20" height="20"/>
    <rect x="202" y="126" width="60" height="20"/>
    <rect x="182" y="146" width="20" height="20"/>
    <rect x="262" y="146" width="20" height="20"/>
    <rect x="182" y="166" width="100" height="20"/>
    <rect x="182" y="186" width="20" height="20"/>
    <rect x="202" y="206" width="60" height="20"/>
    <rect x="308" y="126" width="20" height="20"/>
    <rect x="348" y="126" width="40" height="20"/>
    <rect x="308" y="146" width="40" height="20"/>
    <rect x="388" y="146" width="20" height="20"/>
    <rect x="308" y="166" width="20" height="20"/>
    <rect x="308" y="186" width="20" height="20"/>
    <rect x="308" y="206" width="20" height="20"/>
    <rect x="434" y="126" width="20" height="20"/>
    <rect x="514" y="126" width="20" height="20"/>
    <rect x="434" y="146" width="20" height="20"/>
    <rect x="514" y="146" width="20" height="20"/>
    <rect x="434" y="166" width="20" height="20"/>
    <rect x="514" y="166" width="20" height="20"/>
    <rect x="454" y="186" width="80" height="20"/>
    <rect x="514" y="206" width="20" height="20"/>
    <rect x="514" y="226" width="20" height="20"/>
    <rect x="434" y="246" width="80" height="20"/>
  </g>

  <text x="58" y="310" font-family="ui-monospace, SFMono-Regular, Menlo, Consolas, DejaVu Sans Mono, Liberation Mono, monospace" font-size="21" fill="#8B949E" letter-spacing="7.5">RAKOTONARIVO</text>

  <line x1="56" y1="338" x2="1144" y2="338" stroke="#E8A33D" stroke-width="1" opacity="0.45"/>

  <text x="56" y="369" font-family="ui-monospace, SFMono-Regular, Menlo, Consolas, DejaVu Sans Mono, Liberation Mono, monospace" font-size="15" fill="#6E7681">software engineer <tspan fill="#3D444D">·</tspan> backend &amp; databases <tspan fill="#3D444D">·</tspan> <tspan fill="#E8A33D">open for freelance</tspan></text>
  <rect x="560" y="357" width="9" height="16" fill="#E8A33D"/>
</svg>
